PathFileType	4	(X/Y/Z)	/Users/itak/Documents/Research/Walk-IL/dataset/trc/00480_00167.trc
DataRate	CameraRate	NumFrames	NumMarkers	Units	OrigDataRate	OrigDataStartFrame	OrigNumFrames
100.000000	100.000000	4	53	mm	100.000000	76	613
Frame#	Time	RPSI			LPSI			L3			STRN			T10			C7			CLAV			RBAK			LBAK			LSHO			LUPA			LAEL			LAOL			LWTS			LWPS			LFRA			LIFD			LHPS			LHTS			RSHO			RUPA			RAEL			RAOL			RWTS			RWPS			RFRA			RIFD			RHTS			RHPS			RBHD			LFHD			RFHD			LBHD			LHIP			RHIP			RASI			LASI			LKNE			LTHI			LANK			LTIP			LTOE			LMT1			LMT5			LHEE			RKNE			RTHI			RANK			RTIP			RTOE			RMT1			RMT5			RHEE			
		X1	Y1	Z1	X2	Y2	Z2	X3	Y3	Z3	X4	Y4	Z4	X5	Y5	Z5	X6	Y6	Z6	X7	Y7	Z7	X8	Y8	Z8	X9	Y9	Z9	X10	Y10	Z10	X11	Y11	Z11	X12	Y12	Z12	X13	Y13	Z13	X14	Y14	Z14	X15	Y15	Z15	X16	Y16	Z16	X17	Y17	Z17	X18	Y18	Z18	X19	Y19	Z19	X20	Y20	Z20	X21	Y21	Z21	X22	Y22	Z22	X23	Y23	Z23	X24	Y24	Z24	X25	Y25	Z25	X26	Y26	Z26	X27	Y27	Z27	X28	Y28	Z28	X29	Y29	Z29	X30	Y30	Z30	X31	Y31	Z31	X32	Y32	Z32	X33	Y33	Z33	X34	Y34	Z34	X35	Y35	Z35	X36	Y36	Z36	X37	Y37	Z37	X38	Y38	Z38	X39	Y39	Z39	X40	Y40	Z40	X41	Y41	Z41	X42	Y42	Z42	X43	Y43	Z43	X44	Y44	Z44	X45	Y45	Z45	X46	Y46	Z46	X47	Y47	Z47	X48	Y48	Z48	X49	Y49	Z49	X50	Y50	Z50	X51	Y51	Z51	X52	Y52	Z52	X53	Y53	Z53	

77	0.76	-1329.485473632812	960.983642578125	-49.85487747192383	-1301.148681640625	959.9180908203125	-188.1585388183594	-1306.109985351562	1054.633178710938	-103.8169860839844	-1043.327880859375	1256.21923828125	-71.265869140625	-1326.404663085938	1177.69189453125	-112.9306411743164	-1269.266967773438	1446.7060546875	-89.74799346923828	-1083.569213867188	1367.455688476562	-79.78705596923828	-1342.969116210938	1324.955688476562	-5.481894969940186	-1290.495971679688	1399.253784179688	-192.9686584472656	-1179.801879882812	1425.356323242188	-257.7023010253906	-1172.185302734375	1307.755859375	-357.40625	-1135.722290039062	1093.4912109375	-386.1088256835938	-1221.379760742188	1079.57470703125	-330.4689636230469	-1063.104370117188	890.0811767578125	-346.0084838867188	-1105.771240234375	875.7884521484375	-405.3871154785156	-1115.921020507812	1006.76025390625	-397.3901672363281	-1051.420776367188	732.408203125	-362.2796020507812	-1100.062744140625	798.10302734375	-406.4943542480469	-1046.157592773438	806.6013793945312	-356.66943359375	-1225.038696289062	1416.362426757812	76.90576934814453	-1251.470458984375	1354.935180664062	149.5485992431641	-1238.188232421875	1068.818603515625	208.5521087646484	-1279.725341796875	1049.18408203125	159.0630645751953	-1117.093505859375	870.1396484375	193.5565185546875	-1195.893188476562	850.7786865234375	232.9942016601562	-1234.294677734375	1010.9990234375	219.8002319335938	-1109.263671875	713.9915161132812	210.1954193115234	-1100.342407226562	774.0513305664062	210.4371032714844	-1175.328735351562	765.2816772460938	235.0344390869141	-1197.190307617188	1646.506958007812	7.880556583404541	-1042.568969726562	1661.263549804688	-128.9552612304688	-1059.97216796875	1662.448852539062	0.393908679485321	-1189.516967773438	1649.245971679688	-169.7159271240234	-1147.27294921875	862.888916015625	-281.5099792480469	-1244.814208984375	860.3103637695312	109.3286972045898	-1127.087036132812	899.4799194335938	68.84543609619141	-1065.291259765625	897.3505859375	-183.3634338378906	-1167.630859375	446.0696105957031	-262.7426452636719	-1130.446166992188	596.3515014648438	-271.2212524414062	-1246.835571289062	41.13503265380859	-280.2425231933594	-1178.673461914062	301.2881469726562	-284.2543640136719	-1020.998596191406	45.67147064208984	-190.4147338867188	-1098.997680664062	50.64434814453125	-168.4628143310547	-1092.214111328125	48.80274200439453	-281.4725341796875	-1297.065185546875	45.35581588745117	-220.1815795898438	-1233.859375	469.9242553710938	106.056022644043	-1206.195678710938	728.5015258789062	132.6144104003906	-1298.355224609375	44.223388671875	123.4861679077148	-1242.055908203125	330.720947265625	123.421630859375	-1077.012573242188	48.59061050415039	114.165641784668	-1134.168090820312	52.05774307250977	66.72434997558594	-1170.678588867188	49.2246208190918	170.0394592285156	-1354.211059570312	34.84476852416992	67.76721954345703	
78	0.77	-1329.062744140625	961.1297607421875	-49.83847808837891	-1300.752807617188	960.0238037109375	-188.1710052490234	-1305.624755859375	1054.634033203125	-103.832649230957	-1042.736938476562	1256.091186523438	-71.35763549804688	-1325.852905273438	1177.711181640625	-113.0032730102539	-1268.583618164062	1446.743408203125	-89.88085174560547	-1082.908935546875	1367.313232421875	-79.92938995361328	-1342.387451171875	1325.032836914062	-5.611912250518799	-1289.855712890625	1399.250122070312	-193.0538024902344	-1179.149780273438	1425.268310546875	-257.8083801269531	-1171.63037109375	1307.601806640625	-357.4777526855469	-1135.244018554688	1093.3466796875	-386.1452026367188	-1220.895263671875	1079.46826171875	-330.4206237792969	-1062.6005859375	889.9745483398438	-345.876953125	-1105.238647460938	875.5283203125	-405.2207641601562	-1115.468505859375	1006.586181640625	-397.3185119628906	-1051.016235351562	732.181884765625	-362.0813903808594	-1099.608642578125	797.8515014648438	-406.3724975585938	-1045.901123046875	806.4150390625	-356.5755310058594	-1224.38916015625	1416.34375	76.80950927734375	-1250.872192382812	1354.942993164062	149.4195556640625	-1237.827026367188	1068.806640625	208.4070892333984	-1279.34716796875	1049.2333984375	158.8401794433594	-1117.0126953125	869.932373046875	193.4317779541016	-1195.902465820312	850.7329711914062	232.9022827148438	-1234.012817382812	1010.990051269531	219.64794921875	-1109.465087890625	713.8079223632812	210.1094818115234	-1100.380737304688	773.8446044921875	210.2544403076172	-1175.423461914062	765.182373046875	234.8911437988281	-1196.115356445312	1646.607666015625	7.700349807739258	-1041.640747070312	1661.00439453125	-129.3368072509766	-1058.869018554688	1662.286987304688	0.03041362017393112	-1188.649780273438	1649.194091796875	-169.9154357910156	-1147.036499023438	862.8958740234375	-281.5179443359375	-1244.467895507812	860.3427734375	109.2719879150391	-1126.736206054688	899.442626953125	68.79192352294922	-1064.94873046875	897.2402954101562	-183.4440765380859	-1167.70703125	446.0480041503906	-262.8227844238281	-1130.456909179688	596.2643432617188	-271.3170471191406	-1246.849975585938	41.15323257446289	-280.2566223144531	-1178.860473632812	301.2742614746094	-284.3771667480469	-1020.992614746094	45.64712905883789	-190.4128570556641	-1099.005493164062	50.63150024414062	-168.4643096923828	-1092.2138671875	48.80124664306641	-281.4764709472656	-1297.069091796875	45.35416412353516	-220.174560546875	-1233.738891601562	469.9187316894531	106.0283737182617	-1205.969360351562	728.494140625	132.6014404296875	-1298.351806640625	44.21939849853516	123.481819152832	-1241.992553710938	330.7299499511719	123.4105834960938	-1077.01953125	48.58629989624023	114.1478118896484	-1134.164428710938	52.06544494628906	66.74079895019531	-1170.6865234375	49.22350692749023	170.0574035644531	-1354.20947265625	34.85219192504883	67.76790618896484	
79	0.78	-1328.630981445312	961.2697143554688	-49.82786178588867	-1300.362548828125	960.1260375976562	-188.1818695068359	-1305.139770507812	1054.640502929688	-103.8199768066406	-1042.15576171875	1255.966796875	-71.45249938964844	-1325.287963867188	1177.73486328125	-113.0749053955078	-1267.880737304688	1446.783447265625	-90.00553894042969	-1082.245361328125	1367.19580078125	-80.07231903076172	-1341.793823242188	1325.10400390625	-5.725383758544922	-1289.205932617188	1399.248168945312	-193.1368713378906	-1178.484008789062	1425.190673828125	-257.914306640625	-1171.038696289062	1307.443115234375	-357.5555419921875	-1134.781616210938	1093.206176757812	-386.1872863769531	-1220.40771484375	1079.368896484375	-330.35888671875	-1062.091430664062	889.86279296875	-345.7450866699219	-1104.697021484375	875.2731323242188	-405.0666198730469	-1115.0234375	1006.407653808594	-397.255859375	-1050.582885742188	731.9580688476562	-361.8964538574219	-1099.13330078125	797.6237182617188	-406.2557067871094	-1045.651000976562	806.238037109375	-356.5365295410156	-1223.719482421875	1416.322631835938	76.70709991455078	-1250.25390625	1354.945190429688	149.2994537353516	-1237.435546875	1068.79345703125	208.2580108642578	-1278.954833984375	1049.2890625	158.6415863037109	-1116.929931640625	869.71484375	193.3130493164062	-1195.897094726562	850.682373046875	232.8019866943359	-1233.695434570312	1010.975219726562	219.4784545898438	-1109.673461914062	713.6138305664062	210.0313873291016	-1100.4169921875	773.6365966796875	210.0830078125	-1175.512573242188	765.08251953125	234.751220703125	-1195.064697265625	1646.69482421875	7.522768497467041	-1040.6962890625	1660.751220703125	-129.6991119384766	-1057.773559570312	1662.1376953125	-0.3239527642726898	-1187.784545898438	1649.136840820312	-170.1121520996094	-1146.808715820312	862.89404296875	-281.5396728515625	-1244.110473632812	860.3773803710938	109.2178649902344	-1126.40478515625	899.4035034179688	68.72505187988281	-1064.58349609375	897.150634765625	-183.525390625	-1167.763061523438	446.0249938964844	-262.9035034179688	-1130.451049804688	596.1806640625	-271.4207153320312	-1246.873046875	41.18502426147461	-280.2816772460938	-1179.005249023438	301.2640686035156	-284.4823913574219	-1020.986206054688	45.6231575012207	-190.4110412597656	-1099.014404296875	50.62093353271484	-168.4668426513672	-1092.2138671875	48.79911041259766	-281.4822387695312	-1297.0712890625	45.35523986816406	-220.1683044433594	-1233.606079101562	469.9107360839844	105.9960632324219	-1205.7255859375	728.4837646484375	132.5858001708984	-1298.348754882812	44.21713638305664	123.4797897338867	-1241.926513671875	330.74267578125	123.3970489501953	-1077.028076171875	48.58169555664062	114.1318054199219	-1134.161376953125	52.07509613037109	66.7581787109375	-1170.695434570312	49.22169876098633	170.0747680664062	-1354.20654296875	34.85995101928711	67.76953887939453	
80	0.79	-1328.194580078125	961.3992919921875	-49.82239532470703	-1299.976318359375	960.2249755859375	-188.1926422119141	-1304.65478515625	1054.655517578125	-103.7889175415039	-1041.59130859375	1255.84033203125	-71.54842376708984	-1324.711791992188	1177.766723632812	-113.1434326171875	-1267.1591796875	1446.82568359375	-90.11932373046875	-1081.579467773438	1367.104248046875	-80.20254516601562	-1341.184692382812	1325.172119140625	-5.826606750488281	-1288.545166015625	1399.24755859375	-193.2236480712891	-1177.80810546875	1425.121337890625	-258.0244750976562	-1170.414184570312	1307.282104492188	-357.6377563476562	-1134.33203125	1093.064575195312	-386.2351379394531	-1219.916870117188	1079.276977539062	-330.2947082519531	-1061.5791015625	889.738037109375	-345.620849609375	-1104.166137695312	875.0330810546875	-404.9338989257812	-1114.5869140625	1006.225158691406	-397.2060241699219	-1050.124267578125	731.748291015625	-361.7202758789062	-1098.65380859375	797.428955078125	-406.1398620605469	-1045.380493164062	806.0678100585938	-356.537353515625	-1223.027709960938	1416.300170898438	76.59716033935547	-1249.613525390625	1354.944946289062	149.1858825683594	-1237.015258789062	1068.78271484375	208.105224609375	-1278.553833007812	1049.353149414062	158.4762878417969	-1116.838989257812	869.4942626953125	193.1950988769531	-1195.869018554688	850.6276245117188	232.689697265625	-1233.342163085938	1010.954772949219	219.2908477783203	-1109.870849609375	713.4138793945312	209.949951171875	-1100.449462890625	773.4307250976562	209.9241790771484	-1175.592895507812	764.9855346679688	234.6174011230469	-1194.031860351562	1646.765747070312	7.349388599395752	-1039.740112304688	1660.502685546875	-130.0449371337891	-1056.68896484375	1661.9951171875	-0.6711030006408691	-1186.921142578125	1649.081420898438	-170.3085784912109	-1146.581787109375	862.8822631835938	-281.5771789550781	-1243.739379882812	860.4121704101562	109.1660614013672	-1126.0849609375	899.3649291992188	68.64769744873047	-1064.20849609375	897.0771484375	-183.6045074462891	-1167.793823242188	446.0007629394531	-262.9837341308594	-1130.420776367188	596.1028442382812	-271.5276794433594	-1246.906494140625	41.23273086547852	-280.3189086914062	-1179.101440429688	301.2572326660156	-284.5705871582031	-1020.979370117188	45.59876251220703	-190.4087371826172	-1099.022338867188	50.61206436157227	-168.4689788818359	-1092.213623046875	48.79612731933594	-281.4897155761719	-1297.071533203125	45.35877227783203	-220.1627807617188	-1233.46435546875	469.9003295898438	105.9595031738281	-1205.462158203125	728.4691772460938	132.5637969970703	-1298.34716796875	44.21676254272461	123.4819488525391	-1241.857666015625	330.7584533691406	123.3798522949219	-1077.03759765625	48.57687377929688	114.1179809570312	-1134.158447265625	52.08567428588867	66.77665710449219	-1170.705078125	49.21935653686523	170.09130859375	-1354.2021484375	34.86813735961914	67.77225494384766	
